<?xml version="1.0" standalone="no"?>
<!DOCTYPE svg PUBLIC "-//W3C//DTD SVG 20010904//EN"
 "http://www.w3.org/TR/2001/REC-SVG-20010904/DTD/svg10.dtd">
<svg version="1.0" xmlns="http://www.w3.org/2000/svg"
 width="144.000000pt" height="144.000000pt" viewBox="0 0 144.000000 144.000000"
 preserveAspectRatio="xMidYMid meet">
<metadata>
Created by potrace 1.14, written by Peter Selinger 2001-2017
</metadata>
<g transform="translate(0.000000,144.000000) scale(0.100000,-0.100000)"
fill="#000000" stroke="none">
<path d="M90 1342 c-33 -15 -60 -39 -75 -68 -13 -25 -15 -103 -15 -561 0 -582
-1 -574 58 -618 26 -19 45 -20 653 -23 l625 -2 35 22 c68 46 66 29 66 615 0
291 -4 540 -9 554 -5 14 -23 39 -39 55 l-30 29 -627 2 c-345 1 -634 -1 -642
-5z m218 -264 c1 -49 -1 -89 -5 -89 -4 -1 -41 -2 -81 -3 -58 -2 -75 1 -81 13
-12 22 -11 144 1 158 6 7 37 11 86 10 l77 -2 3 -87z m667 69 c12 -17 15 -55
15 -168 0 -127 -2 -148 -18 -162 -15 -13 -51 -16 -253 -16 -176 0 -241 3 -254
13 -15 11 -18 32 -17 171 0 135 2 160 16 171 12 8 86 12 257 12 232 -1 240 -1
254 -21z m320 -72 l0 -90 -72 -1 c-40 0 -78 3 -85 7 -14 9 -19 148 -6 166 5 7
38 10 86 10 l77 -2 0 -90z m-985 -371 l0 -85 -87 3 -88 3 -3 65 c-5 106 -3
109 76 112 100 4 102 3 102 -98z m991 85 c0 -5 0 -29 0 -54 0 -25 0 -61 0 -80
l-1 -35 -85 0 c-61 0 -85 4 -86 13 -4 45 -4 149 1 156 11 19 169 18 171 0z
m-327 -184 c12 -13 15 -45 15 -169 1 -133 -2 -155 -17 -169 -24 -21 -477 -25
-506 -4 -16 12 -18 30 -18 171 0 107 4 162 12 172 19 22 492 21 514 -1z m-671
-174 c4 0 6 -40 5 -88 l-3 -88 -65 -3 c-111 -5 -110 -5 -110 92 0 73 2 85 18
88 15 3 135 3 155 -1z m996 -9 c10 -16 7 -144 -3 -160 -9 -15 -153 -14 -163 1
-8 13 -7 152 1 165 9 14 156 8 165 -6z"/>
</g>
</svg>
